<?xml version="1.0" encoding="UTF-8"?>
<svg xmlns="http://www.w3.org/2000/svg" viewBox="47 33 640 160">
    <g transform="translate(0,-22.05)">
    <path transform="translate(0,22.05)" fill="none" stroke="#111111" stroke-width="12.6" stroke-linecap="square" stroke-linejoin="miter" stroke-miterlimit="4" d="M166.65 88.048 V69.148 L116.25 40.798 L65.85 69.148 V110.098 L116.25 138.448 L133.575 127.423"/>
    <path transform="translate(0,22.05)" fill="none" stroke="#111111" stroke-width="12.6" stroke-linecap="square" stroke-linejoin="miter" stroke-miterlimit="4" d="M65.85 138.448 V158.923 L116.25 187.273 L166.65 158.923 V117.973 L116.25 89.623 L98.925 99.073"/>
    <path fill="#111111" d="M262.332 76.07 C262.27 66.781 256.059 61.68 244.742 61.68 C233.98 61.68 227.766 66.723 227.766 75.453 C227.766 82.402 231.273 85.785 240.375 87.508 L246.648 88.738 C252.797 89.906 255.074 91.629 255.074 95.258 C255.074 99.008 251.629 101.285 246.031 101.285 C239.762 101.285 236.254 98.641 235.945 93.844 L226.969 93.844 C227.523 103.438 234.102 108.664 245.539 108.664 C257.102 108.664 263.93 103.312 263.93 94.152 C263.93 87.078 260.363 83.387 252.059 81.789 L245.051 80.438 C238.469 79.145 236.562 77.852 236.562 74.594 C236.562 71.211 239.516 69.059 244.312 69.059 C250.152 69.059 253.414 71.52 253.719 76.07 Z M262.332 76.07"/>
    <path fill="#111111" d="M306.574 86.895 L306.574 107.25 L315.801 107.25 L315.801 62.418 L306.516 62.418 L306.516 79.207 L288.801 79.207 L288.801 62.418 L279.578 62.418 L279.578 107.25 L288.801 107.25 L288.801 86.895 Z M306.574 86.895"/>
    <path fill="#111111" d="M359.492 98.211 L362.445 107.25 L371.918 107.25 L356.418 62.418 L346.211 62.418 L330.281 107.25 L339.691 107.25 L342.703 98.211 Z M356.973 90.523 L345.285 90.523 L351.129 72.996 Z M356.973 90.523"/>
    <path fill="#111111" d="M396.605 62.418 L387.379 62.418 L387.379 107.25 L418.066 107.25 L418.066 99.562 L396.605 99.562 Z M396.605 62.418"/>
    <path fill="#111111" d="M448.168 107.25 L463.543 62.418 L454.258 62.418 L444.48 96.18 L434.516 62.418 L425.23 62.418 L440.359 107.25 Z M448.168 107.25"/>
    <path fill="#111111" d="M500.469 98.211 L503.422 107.25 L512.895 107.25 L497.395 62.418 L487.188 62.418 L471.258 107.25 L480.668 107.25 L483.68 98.211 Z M497.949 90.523 L486.266 90.523 L492.105 72.996 Z M497.949 90.523"/>
    <path fill="#111111" d="M528.172 107.25 L545.699 107.25 C552.527 107.25 556.832 105.652 559.906 102.023 C563.41 97.84 565.32 91.812 565.32 84.801 C565.32 77.852 563.41 71.824 559.906 67.582 C556.832 63.953 552.59 62.418 545.699 62.418 L528.172 62.418 Z M537.398 99.562 L537.398 70.105 L545.699 70.105 C552.648 70.105 556.094 74.961 556.094 84.863 C556.094 94.703 552.648 99.562 545.699 99.562 Z M537.398 99.562"/>
    <path fill="#111111" d="M611.227 62.418 L577.523 62.418 L577.523 70.105 L600.461 70.105 L577.523 99.562 L577.523 107.25 L611.227 107.25 L611.227 99.562 L588.348 99.562 L611.227 70.105 Z M611.227 62.418"/>
    <path fill="#111111" d="M636.219 87.938 L657.684 87.938 L657.684 80.25 L636.219 80.25 L636.219 70.105 L659.406 70.105 L659.406 62.418 L626.996 62.418 L626.996 107.25 L660.512 107.25 L660.512 99.562 L636.219 99.562 Z M636.219 87.938"/>
    <path fill="#111111" d="M237.836 145.254 C237.836 144.426 237.785 144.195 237.52 143.637 C236.859 142.25 235.457 141.523 233.43 141.523 C230.789 141.523 229.156 142.875 229.156 145.055 C229.156 146.523 229.93 147.445 231.516 147.859 L234.5 148.652 C236.035 149.047 236.711 149.656 236.711 150.598 C236.711 151.242 236.367 151.902 235.855 152.266 C235.375 152.613 234.617 152.777 233.645 152.777 C232.324 152.777 231.449 152.465 230.871 151.77 C230.426 151.242 230.227 150.664 230.242 149.922 L228.793 149.922 C228.809 151.027 229.023 151.754 229.5 152.414 C230.328 153.551 231.711 154.129 233.543 154.129 C234.98 154.129 236.152 153.801 236.926 153.207 C237.734 152.562 238.246 151.488 238.246 150.449 C238.246 148.965 237.324 147.875 235.688 147.43 L232.668 146.621 C231.219 146.227 230.691 145.766 230.691 144.84 C230.691 143.617 231.762 142.809 233.379 142.809 C235.293 142.809 236.367 143.668 236.383 145.254 Z M237.836 145.254"/>
    <path fill="#111111" d="M247.66 141.523 C244.211 141.523 241.867 144.066 241.867 147.828 C241.867 151.605 244.195 154.129 247.676 154.129 C249.145 154.129 250.43 153.684 251.406 152.859 C252.707 151.754 253.484 149.891 253.484 147.926 C253.484 144.047 251.191 141.523 247.66 141.523 Z M247.66 142.875 C250.266 142.875 251.949 144.84 251.949 147.891 C251.949 150.797 250.215 152.777 247.676 152.777 C245.102 152.777 243.402 150.797 243.402 147.828 C243.402 144.855 245.102 142.875 247.66 142.875 Z M247.66 142.875"/>
    <path fill="#111111" d="M265.586 141.723 L265.586 150.168 C265.586 151.785 264.414 152.777 262.484 152.777 C261.594 152.777 260.867 152.562 260.289 152.148 C259.695 151.688 259.414 151.078 259.414 150.168 L259.414 141.723 L257.879 141.723 L257.879 150.168 C257.879 152.613 259.629 154.129 262.484 154.129 C265.305 154.129 267.121 152.578 267.121 150.168 L267.121 141.723 Z M265.586 141.723"/>
    <path fill="#111111" d="M273.859 148.57 L277.82 148.57 C279.188 148.57 279.801 149.23 279.801 150.715 L279.781 151.785 C279.781 152.527 279.914 153.254 280.129 153.75 L281.992 153.75 L281.992 153.371 C281.418 152.973 281.301 152.547 281.27 150.945 C281.25 148.965 280.938 148.371 279.633 147.809 C280.988 147.133 281.531 146.324 281.531 144.938 C281.531 142.859 280.246 141.723 277.867 141.723 L272.324 141.723 L272.324 153.75 L273.859 153.75 Z M273.859 147.215 L273.859 143.074 L277.57 143.074 C278.43 143.074 278.926 143.207 279.305 143.535 C279.719 143.883 279.93 144.426 279.93 145.137 C279.93 146.574 279.207 147.215 277.57 147.215 Z M273.859 147.215"/>
    <path fill="#111111" d="M295.746 145.449 C295.266 142.809 293.75 141.523 291.109 141.523 C289.492 141.523 288.188 142.035 287.297 143.023 C286.211 144.215 285.613 145.93 285.613 147.875 C285.613 149.855 286.227 151.555 287.348 152.727 C288.289 153.684 289.477 154.129 291.043 154.129 C293.98 154.129 295.629 152.547 295.992 149.359 L294.41 149.359 C294.277 150.188 294.113 150.746 293.863 151.227 C293.371 152.215 292.348 152.777 291.059 152.777 C288.668 152.777 287.148 150.863 287.148 147.859 C287.148 144.773 288.586 142.875 290.93 142.875 C291.902 142.875 292.809 143.156 293.305 143.637 C293.75 144.047 293.996 144.543 294.18 145.449 Z M295.746 145.449"/>
    <path fill="#111111" d="M300.785 141.723 H302.336 V153.75 H300.785 Z"/>
    <path fill="#111111" d="M316.781 141.723 L315.328 141.723 L315.328 151.555 L309.043 141.723 L307.379 141.723 L307.379 153.75 L308.828 153.75 L308.828 144 L315.051 153.75 L316.781 153.75 Z M316.781 141.723"/>
    <path fill="#111111" d="M332.117 147.398 L327.102 147.398 L327.102 148.75 L330.766 148.75 L330.766 149.082 C330.766 151.227 329.18 152.777 326.988 152.777 C325.766 152.777 324.66 152.332 323.949 151.555 C323.16 150.699 322.68 149.262 322.68 147.777 C322.68 144.824 324.363 142.875 326.902 142.875 C328.734 142.875 330.055 143.816 330.387 145.367 L331.953 145.367 C331.523 142.926 329.676 141.523 326.922 141.523 C325.453 141.523 324.266 141.902 323.324 142.68 C321.922 143.832 321.145 145.699 321.145 147.859 C321.145 151.555 323.406 154.129 326.656 154.129 C328.289 154.129 329.578 153.52 330.766 152.215 L331.145 153.816 L332.117 153.816 Z M332.117 147.398"/>
    <path fill="#111111" d="M345.531 145.996 C344.391 145.996 343.469 146.918 343.469 148.059 C343.469 149.195 344.391 150.121 345.531 150.121 C346.652 150.121 347.594 149.195 347.594 148.09 C347.594 146.918 346.688 145.996 345.531 145.996 Z M345.531 145.996"/>
    <path fill="#111111" d="M369.898 153.766 L368.348 152.496 C369.488 151.242 370.047 149.707 370.047 147.793 C370.047 144.047 367.707 141.523 364.242 141.523 C360.758 141.523 358.434 144.047 358.434 147.828 C358.434 151.59 360.758 154.129 364.242 154.129 C365.445 154.129 366.418 153.867 367.391 153.289 L369.125 154.723 Z M365.742 150.367 L364.984 151.293 L366.203 152.316 C365.496 152.66 364.949 152.777 364.223 152.777 C361.668 152.777 359.969 150.797 359.969 147.828 C359.969 144.855 361.668 142.875 364.242 142.875 C366.797 142.875 368.516 144.855 368.516 147.809 C368.516 149.379 368.102 150.566 367.211 151.57 Z M365.742 150.367"/>
    <path fill="#111111" d="M382.086 141.723 L382.086 150.168 C382.086 151.785 380.914 152.777 378.984 152.777 C378.09 152.777 377.367 152.562 376.789 152.148 C376.195 151.688 375.914 151.078 375.914 150.168 L375.914 141.723 L374.379 141.723 L374.379 150.168 C374.379 152.613 376.129 154.129 378.984 154.129 C381.805 154.129 383.617 152.578 383.617 150.168 L383.617 141.723 Z M382.086 141.723"/>
    <path fill="#111111" d="M394.531 150.137 L395.77 153.75 L397.488 153.75 L393.262 141.723 L391.281 141.723 L386.992 153.75 L388.625 153.75 L389.898 150.137 Z M394.105 148.848 L390.277 148.848 L392.258 143.371 Z M394.105 148.848"/>
    <path fill="#111111" d="M402.973 141.723 L401.438 141.723 L401.438 153.75 L408.91 153.75 L408.91 152.398 L402.973 152.398 Z M402.973 141.723"/>
    <path fill="#111111" d="M413.34 141.723 H414.891 V153.75 H413.34 Z"/>
    <path fill="#111111" d="M424.254 143.074 L428.199 143.074 L428.199 141.723 L418.762 141.723 L418.762 143.074 L422.723 143.074 L422.723 153.75 L424.254 153.75 Z M424.254 143.074"/>
    <path fill="#111111" d="M437.594 149.031 L442.117 141.723 L440.285 141.723 L436.852 147.578 L433.32 141.723 L431.426 141.723 L436.059 149.031 L436.059 153.75 L437.594 153.75 Z M437.594 149.031"/>
    <path fill="#111111" d="M462.523 145.449 C462.047 142.809 460.527 141.523 457.887 141.523 C456.27 141.523 454.969 142.035 454.078 143.023 C452.988 144.215 452.395 145.93 452.395 147.875 C452.395 149.855 453.004 151.555 454.125 152.727 C455.066 153.684 456.254 154.129 457.824 154.129 C460.758 154.129 462.41 152.547 462.773 149.359 L461.188 149.359 C461.055 150.188 460.891 150.746 460.645 151.227 C460.148 152.215 459.125 152.777 457.84 152.777 C455.445 152.777 453.93 150.863 453.93 147.859 C453.93 144.773 455.363 142.875 457.707 142.875 C458.68 142.875 459.59 143.156 460.082 143.637 C460.527 144.047 460.777 144.543 460.957 145.449 Z M462.523 145.449"/>
    <path fill="#111111" d="M472.203 141.523 C468.754 141.523 466.41 144.066 466.41 147.828 C466.41 151.605 468.738 154.129 472.219 154.129 C473.688 154.129 474.973 153.684 475.945 152.859 C477.25 151.754 478.027 149.891 478.027 147.926 C478.027 144.047 475.734 141.523 472.203 141.523 Z M472.203 142.875 C474.809 142.875 476.492 144.84 476.492 147.891 C476.492 150.797 474.758 152.777 472.219 152.777 C469.645 152.777 467.945 150.797 467.945 147.828 C467.945 144.855 469.645 142.875 472.203 142.875 Z M472.203 142.875"/>
    <path fill="#111111" d="M491.68 141.723 L490.227 141.723 L490.227 151.555 L483.941 141.723 L482.273 141.723 L482.273 153.75 L483.727 153.75 L483.727 144 L489.945 153.75 L491.68 153.75 Z M491.68 141.723"/>
    <path fill="#111111" d="M500.977 143.074 L504.918 143.074 L504.918 141.723 L495.48 141.723 L495.48 143.074 L499.441 143.074 L499.441 153.75 L500.977 153.75 Z M500.977 143.074"/>
    <path fill="#111111" d="M510.371 148.57 L514.332 148.57 C515.703 148.57 516.312 149.23 516.312 150.715 L516.297 151.785 C516.297 152.527 516.426 153.254 516.641 153.75 L518.508 153.75 L518.508 153.371 C517.93 152.973 517.812 152.547 517.781 150.945 C517.766 148.965 517.449 148.371 516.148 147.809 C517.5 147.133 518.043 146.324 518.043 144.938 C518.043 142.859 516.758 141.723 514.383 141.723 L508.836 141.723 L508.836 153.75 L510.371 153.75 Z M510.371 147.215 L510.371 143.074 L514.086 143.074 C514.941 143.074 515.438 143.207 515.816 143.535 C516.23 143.883 516.445 144.426 516.445 145.137 C516.445 146.574 515.719 147.215 514.086 147.215 Z M510.371 147.215"/>
    <path fill="#111111" d="M527.836 141.523 C524.387 141.523 522.047 144.066 522.047 147.828 C522.047 151.605 524.371 154.129 527.852 154.129 C529.32 154.129 530.609 153.684 531.582 152.859 C532.887 151.754 533.66 149.891 533.66 147.926 C533.66 144.047 531.367 141.523 527.836 141.523 Z M527.836 142.875 C530.445 142.875 532.125 144.84 532.125 147.891 C532.125 150.797 530.395 152.777 527.852 152.777 C525.277 152.777 523.578 150.797 523.578 147.828 C523.578 144.855 525.277 142.875 527.836 142.875 Z M527.836 142.875"/>
    <path fill="#111111" d="M539.508 141.723 L537.977 141.723 L537.977 153.75 L545.449 153.75 L545.449 152.398 L539.508 152.398 Z M539.508 141.723"/>
    <path fill="#111111" d="M558.102 145.996 C556.965 145.996 556.039 146.918 556.039 148.059 C556.039 149.195 556.965 150.121 558.102 150.121 C559.227 150.121 560.164 149.195 560.164 148.09 C560.164 146.918 559.258 145.996 558.102 145.996 Z M558.102 145.996"/>
    <path fill="#111111" d="M573.234 141.723 L571.699 141.723 L571.699 153.75 L579.172 153.75 L579.172 152.398 L573.234 152.398 Z M573.234 141.723"/>
    <path fill="#111111" d="M587.695 141.523 C584.246 141.523 581.902 144.066 581.902 147.828 C581.902 151.605 584.23 154.129 587.711 154.129 C589.18 154.129 590.465 153.684 591.441 152.859 C592.742 151.754 593.52 149.891 593.52 147.926 C593.52 144.047 591.227 141.523 587.695 141.523 Z M587.695 142.875 C590.301 142.875 591.984 144.84 591.984 147.891 C591.984 150.797 590.25 152.777 587.711 152.777 C585.137 152.777 583.438 150.797 583.438 147.828 C583.438 144.855 585.137 142.875 587.695 142.875 Z M587.695 142.875"/>
    <path fill="#111111" d="M608.211 147.398 L603.195 147.398 L603.195 148.75 L606.859 148.75 L606.859 149.082 C606.859 151.227 605.273 152.777 603.078 152.777 C601.859 152.777 600.754 152.332 600.043 151.555 C599.25 150.699 598.773 149.262 598.773 147.777 C598.773 144.824 600.457 142.875 602.996 142.875 C604.828 142.875 606.148 143.816 606.477 145.367 L608.047 145.367 C607.617 142.926 605.77 141.523 603.012 141.523 C601.547 141.523 600.355 141.902 599.418 142.68 C598.016 143.832 597.238 145.699 597.238 147.859 C597.238 151.555 599.5 154.129 602.75 154.129 C604.383 154.129 605.672 153.52 606.859 152.215 L607.238 153.816 L608.211 153.816 Z M608.211 147.398"/>
    <path fill="#111111" d="M613.398 141.723 H614.949 V153.75 H613.398 Z"/>
    <path fill="#111111" d="M628.57 145.254 C628.57 144.426 628.52 144.195 628.258 143.637 C627.598 142.25 626.195 141.523 624.164 141.523 C621.523 141.523 619.891 142.875 619.891 145.055 C619.891 146.523 620.668 147.445 622.25 147.859 L625.238 148.652 C626.773 149.047 627.449 149.656 627.449 150.598 C627.449 151.242 627.102 151.902 626.59 152.266 C626.113 152.613 625.352 152.777 624.379 152.777 C623.059 152.777 622.184 152.465 621.609 151.77 C621.16 151.242 620.965 150.664 620.98 149.922 L619.527 149.922 C619.547 151.027 619.758 151.754 620.238 152.414 C621.062 153.551 622.449 154.129 624.281 154.129 C625.715 154.129 626.887 153.801 627.664 153.207 C628.473 152.562 628.984 151.488 628.984 150.449 C628.984 148.965 628.059 147.875 626.426 147.43 L623.406 146.621 C621.953 146.227 621.426 145.766 621.426 144.84 C621.426 143.617 622.5 142.809 624.117 142.809 C626.031 142.809 627.102 143.668 627.117 145.254 Z M628.57 145.254"/>
    <path fill="#111111" d="M637.504 143.074 L641.449 143.074 L641.449 141.723 L632.012 141.723 L632.012 143.074 L635.969 143.074 L635.969 153.75 L637.504 153.75 Z M637.504 143.074"/>
    <path fill="#111111" d="M645.434 141.723 H646.985 V153.75 H645.434 Z"/>
    <path fill="#111111" d="M661.691 145.449 C661.215 142.809 659.695 141.523 657.055 141.523 C655.438 141.523 654.137 142.035 653.242 143.023 C652.156 144.215 651.562 145.93 651.562 147.875 C651.562 149.855 652.172 151.555 653.293 152.727 C654.234 153.684 655.422 154.129 656.988 154.129 C659.926 154.129 661.578 152.547 661.941 149.359 L660.355 149.359 C660.223 150.188 660.059 150.746 659.812 151.227 C659.316 152.215 658.293 152.777 657.008 152.777 C654.613 152.777 653.094 150.863 653.094 147.859 C653.094 144.773 654.531 142.875 656.875 142.875 C657.848 142.875 658.754 143.156 659.25 143.637 C659.695 144.047 659.941 144.543 660.125 145.449 Z M661.691 145.449"/>
    <path fill="#111111" d="M674.719 145.254 C674.719 144.426 674.668 144.195 674.406 143.637 C673.746 142.25 672.344 141.523 670.312 141.523 C667.672 141.523 666.039 142.875 666.039 145.055 C666.039 146.523 666.816 147.445 668.398 147.859 L671.387 148.652 C672.918 149.047 673.598 149.656 673.598 150.598 C673.598 151.242 673.25 151.902 672.738 152.266 C672.258 152.613 671.5 152.777 670.527 152.777 C669.207 152.777 668.332 152.465 667.754 151.77 C667.309 151.242 667.113 150.664 667.129 149.922 L665.676 149.922 C665.691 151.027 665.906 151.754 666.387 152.414 C667.211 153.551 668.598 154.129 670.43 154.129 C671.863 154.129 673.035 153.801 673.812 153.207 C674.617 152.562 675.129 151.488 675.129 150.449 C675.129 148.965 674.207 147.875 672.574 147.43 L669.555 146.621 C668.102 146.227 667.574 145.766 667.574 144.84 C667.574 143.617 668.645 142.809 670.262 142.809 C672.176 142.809 673.25 143.668 673.266 145.254 Z M674.719 145.254"/>
    </g>
</svg>
